# xmcd CD database file
#
# Track frame offsets:
#	150
#	14507
#	38480
#	58295
#	82397
#	105887
#	122532
#	176700
#	198017
#	215217
#
# Disc length: 3146 seconds
#
# Revision: 1
# Processed by: cddbd v1.4PL0 Copyright (c) Steve Scherf et al.
# Submitted via: CDex 1.51
#
DISCID=880c480a
DTITLE=Agnieszka Skrzypek - My Lullaby
DYEAR=1900
DGENRE=Jazz
TTITLE0=To see World
TTITLE1=Waltz for Debby
TTITLE2=I've Got the World on a String
TTITLE3=My Lullaby
TTITLE4=You and the Night and the Music
TTITLE5=I Put a Spell on You
TTITLE6=Never Said (Chan's Song)/Trust me
TTITLE7=Still we dream (Ugly beauty)
TTITLE8=I Hear Music
TTITLE9=Polka Dots and Moonbeams
EXTD=
EXTT0=
EXTT1=
EXTT2=
EXTT3=
EXTT4=
EXTT5=
EXTT6=
EXTT7=
EXTT8=
EXTT9=
PLAYORDER=
